# xmcd
# 
# Track frame offsets:
#     150
#     20435
#     43043
#     67370
#     91573
#     117160
#     139280
#     157443
#     182468
#     204513
#     223803
#     245415
#     271490
#     291665
#     316250
# 
# Disc length: 4528
# 
# Revision: 1
# Processed by: cddbd v1.5.2PL0 Copyright (c) Steve Scherf et al.
# Submitted via: BonkEnc v1.0.8
# 
DISCID=ed11ae0f
DTITLE=ANRI - MY FAVORITE SONGS 2
DYEAR=1991
DGENRE=J-POP(J)
TTITLE0=CHRISTMAS CALENDAR
TTITLE1=ボーイフレンド
TTITLE2=さよなら　シングル・デイズ
TTITLE3=最後のサーフ･ホリデー
TTITLE4=SUMMER CANDLES
TTITLE5=愛してるなんてとても言えない
TTITLE6=スノーフレイクの街角
TTITLE7=Groove A Go･Go
TTITLE8=P.S.言葉にならない
TTITLE9=MIND CRUSIN'
TTITLE10=Sweet Emotion
TTITLE11=STARDUST GO HOME
TTITLE12=Back to the BASIC
TTITLE13=嘘ならやさしく
TTITLE14=ラスト　ラブ
EXTD=YEAR: 1991
EXTT0=
EXTT1=
EXTT2=
EXTT3=
EXTT4=
EXTT5=
EXTT6=
EXTT7=
EXTT8=
EXTT9=
EXTT10=
EXTT11=
EXTT12=
EXTT13=
EXTT14=
PLAYORDER=
